<?xml version="1.0" encoding="UTF-8"?> <svg xmlns="http://www.w3.org/2000/svg" width="394" height="72" viewBox="0 0 394 72" fill="none"> <path d="M37.7262 0L47.0526 26.9209L75.4524 27.5016L52.8167 44.7203L61.0422 72.0002L37.7262 55.721L14.4101 72.0002L22.6357 44.7203L0 27.5016L28.3998 26.9209L37.7262 0Z" fill="#FFCF32"></path> <path d="M117.18 0L126.507 26.9209L154.906 27.5016L132.271 44.7203L140.496 72.0002L117.18 55.721L93.8642 72.0002L102.09 44.7203L79.4541 27.5016L107.854 26.9209L117.18 0Z" fill="#FFCF32"></path> <path d="M196.634 0L205.96 26.9209L234.36 27.5016L211.724 44.7203L219.95 72.0002L196.634 55.721L173.318 72.0002L181.543 44.7203L158.908 27.5016L187.307 26.9209L196.634 0Z" fill="#FFCF32"></path> <path d="M276.088 0L285.414 26.9209L313.814 27.5016L291.178 44.7203L299.404 72.0002L276.088 55.721L252.772 72.0002L260.997 44.7203L238.362 27.5016L266.761 26.9209L276.088 0Z" fill="#FFCF32"></path> <path d="M355.542 0L364.868 26.9209L393.268 27.5016L370.632 44.7203L378.858 72.0002L355.542 55.721L332.226 72.0002L340.451 44.7203L317.816 27.5016L346.215 26.9209L355.542 0Z" fill="#FFCF32"></path> </svg> 