<?xml version="1.0" encoding="UTF-8"?> <svg xmlns="http://www.w3.org/2000/svg" width="400" height="111" viewBox="0 0 400 111" fill="none"> <path d="M47.877 0L0 27.6357V82.8347L13.6671 90.7358L13.5706 35.5247L47.7805 15.778L81.9904 35.5247V90.7117L95.6574 82.8347V27.5875L47.877 0Z" fill="#F26322"></path> <path d="M54.6562 90.7239L47.8287 94.6926L40.9651 90.7601V35.5249L27.3101 43.4139L27.3342 98.625L47.8167 110.459L68.3233 98.625V43.4139L54.6562 35.5249V90.7239Z" fill="#F26322"></path> <path d="M126.96 27.9736L145.754 75.4525H145.911L164.246 27.9736H171.399V82.3765H166.454V34.97H166.297C166.039 35.8305 165.762 36.691 165.464 37.5514C165.207 38.2591 164.914 39.0432 164.584 39.9037C164.258 40.7722 163.957 41.5804 163.715 42.3403L147.961 82.3765H143.474L127.563 42.3524C127.258 41.6447 126.952 40.8727 126.647 40.0364C126.341 39.2 126.059 38.3998 125.802 37.6359C125.497 36.7191 125.191 35.8305 124.885 34.97H124.729V82.3765H120.036V27.9736H126.96Z" fill="#4D4D4D"></path> <path d="M185.778 82.6056C184.301 82.1978 182.919 81.5008 181.713 80.5549C180.563 79.634 179.639 78.4621 179.011 77.1291C178.352 75.762 178.022 74.1657 178.022 72.3402C178.022 70.0081 178.452 68.1062 179.313 66.6345C180.162 65.1803 181.365 63.9645 182.811 63.1002C184.283 62.2156 185.995 61.5441 187.95 61.0857C190.018 60.6112 192.113 60.2567 194.222 60.0242C196.152 59.8231 197.789 59.606 199.132 59.3728C200.475 59.1396 201.564 58.846 202.401 58.4922C203.237 58.1384 203.844 57.6679 204.222 57.0809C204.6 56.4938 204.789 55.6936 204.789 54.6804V53.9204C204.789 51.2345 203.977 49.2441 202.353 47.9494C200.728 46.6546 198.396 46.0073 195.356 46.0073C188.352 46.0073 184.673 48.9265 184.319 54.7648H179.675C179.932 50.961 181.339 47.9172 183.897 45.6333C186.454 43.3495 190.27 42.2075 195.344 42.2075C199.655 42.2075 203.052 43.1605 205.537 45.0664C208.022 46.9723 209.265 50.0805 209.265 54.3909V75.766C209.265 76.9321 209.482 77.7805 209.916 78.3113C210.35 78.842 210.998 79.1355 211.858 79.1918C212.125 79.1911 212.391 79.1669 212.654 79.1195C212.932 79.0712 213.245 78.9868 213.607 78.8903H213.836V82.3161C213.417 82.4894 212.986 82.6305 212.546 82.7383C211.92 82.8783 211.28 82.9431 210.64 82.9313C208.919 82.9313 207.548 82.485 206.526 81.5923C205.505 80.6997 204.946 79.2924 204.85 77.3704V76.538H204.644C204.027 77.3707 203.354 78.1606 202.63 78.9023C201.78 79.7622 200.818 80.5045 199.771 81.1098C198.552 81.8093 197.246 82.3447 195.887 82.7021C194.415 83.1122 192.743 83.3133 190.869 83.3052C189.144 83.3186 187.426 83.0871 185.766 82.6177L185.778 82.6056ZM197.371 78.4681C199.019 77.7845 200.402 76.908 201.52 75.8384C202.57 74.8511 203.408 73.661 203.985 72.3402C204.561 71.0195 204.864 69.5955 204.874 68.1544V61.0736C203.603 61.7813 202.067 62.3281 200.266 62.7142C198.464 63.1002 196.599 63.4178 194.669 63.6671C192.996 63.9245 191.448 64.1898 190.024 64.4633C188.601 64.7367 187.371 65.179 186.333 65.7902C185.308 66.3853 184.456 67.2377 183.86 68.263C183.249 69.3004 182.944 70.6595 182.944 72.3402C182.944 73.7073 183.185 74.8493 183.667 75.766C184.118 76.6427 184.772 77.3993 185.573 77.9735C186.408 78.5522 187.352 78.9544 188.348 79.1557C189.45 79.3864 190.575 79.4996 191.701 79.4934C193.832 79.4934 195.722 79.1516 197.371 78.4681Z" fill="#4D4D4D"></path> <path d="M221.918 93.2327C219.28 91.2785 217.784 88.8298 217.43 85.8865H221.99C222.4 88.1703 223.631 89.8068 225.681 90.796C227.732 91.7851 230.181 92.2797 233.028 92.2797C237.241 92.2797 240.35 91.2785 242.352 89.2761C244.354 87.2737 245.356 84.5194 245.356 81.0131V74.7767H245.126C243.655 77.0043 241.954 78.7011 240.024 79.8672C238.094 81.0332 235.633 81.6163 232.642 81.6163C230.052 81.6163 227.72 81.1338 225.645 80.1687C223.596 79.2301 221.776 77.855 220.313 76.1398C218.842 74.4188 217.712 72.3521 216.924 69.9395C216.136 67.527 215.742 64.8772 215.742 61.9902C215.742 58.7976 216.196 55.9709 217.105 53.5101C218.014 51.0493 219.232 48.9826 220.76 47.3099C222.247 45.6635 224.08 44.366 226.128 43.5101C228.186 42.6481 230.398 42.2091 232.629 42.2194C235.669 42.2194 238.178 42.8427 240.157 44.0891C242.135 45.3356 243.783 47.0204 245.102 49.1434H245.331V43.0397H250V80.8563C250 85.215 248.781 88.7413 246.345 91.4353C243.353 94.5797 238.966 96.1518 233.184 96.1518C228.311 96.1518 224.556 95.1748 221.918 93.2206V93.2327ZM242.545 73.3171C244.628 70.4221 245.669 66.6183 245.669 61.9058C245.669 59.5736 245.416 57.4426 244.909 55.5125C244.403 53.5825 243.615 51.9219 242.545 50.5306C241.494 49.1474 240.124 48.0384 238.552 47.2978C236.952 46.5338 235.086 46.1519 232.955 46.1519C229.047 46.1519 226.015 47.5954 223.86 50.4824C221.705 53.3694 220.627 57.2254 220.627 62.0505C220.61 64.1415 220.866 66.2258 221.387 68.2508C221.894 70.1486 222.654 71.7972 223.667 73.1965C224.658 74.5704 225.96 75.6905 227.467 76.4655C228.987 77.2536 230.788 77.6476 232.871 77.6476C237.229 77.6476 240.45 76.2001 242.533 73.305" fill="#4D4D4D"></path> <path d="M266.357 81.8095C264.14 80.8192 262.177 79.3385 260.615 77.479C259.071 75.6294 257.893 73.4461 257.081 70.929C256.268 68.4119 255.862 65.6857 255.862 62.7504C255.862 59.8071 256.293 57.081 257.153 54.5719C258.013 52.0629 259.216 49.8835 260.76 48.0339C262.295 46.1899 264.219 44.7071 266.393 43.6913C268.596 42.654 271.069 42.1353 273.812 42.1353C276.956 42.1353 279.606 42.7304 281.761 43.9205C283.871 45.0703 285.671 46.7134 287.008 48.7094C288.351 50.7118 289.304 53.0078 289.867 55.5973C290.427 58.222 290.706 60.8989 290.699 63.5828H260.724C260.754 65.6836 261.075 67.77 261.677 69.783C262.206 71.581 263.056 73.2687 264.186 74.7649C265.284 76.1952 266.706 77.3445 268.335 78.1184C270.008 78.9306 271.962 79.3367 274.198 79.3367C277.495 79.3367 280.044 78.5365 281.845 76.9362C283.647 75.3359 284.925 73.1927 285.681 70.5068H290.253C289.393 74.4151 287.615 77.5353 284.921 79.8675C282.227 82.1996 278.653 83.3656 274.198 83.3656C271.254 83.3656 268.641 82.8469 266.357 81.8095ZM284.921 54.4151C284.415 52.7183 283.679 51.2466 282.714 50.0002C281.742 48.75 280.49 47.7459 279.059 47.0689C277.587 46.3612 275.838 46.0074 273.812 46.0074C271.785 46.0074 270.02 46.3612 268.516 47.0689C267.011 47.7482 265.673 48.7487 264.596 50.0002C263.499 51.3005 262.638 52.7824 262.05 54.3789C261.395 56.1419 260.974 57.983 260.796 59.8554H285.754C285.719 58.0131 285.439 56.1836 284.921 54.4151Z" fill="#4D4D4D"></path> <path d="M301.279 43.0397V49.0469H301.436C302.784 47.0415 304.565 45.3638 306.647 44.1374C308.802 42.8427 311.452 42.1953 314.596 42.1953C318.247 42.1953 321.255 43.2488 323.619 45.3557C325.983 47.4627 327.162 50.4945 327.153 54.451V82.3883H322.437V54.9094C322.437 51.9179 321.637 49.7225 320.036 48.3232C318.436 46.9239 316.241 46.2283 313.45 46.2363C311.84 46.2273 310.241 46.5135 308.734 47.0807C307.308 47.6089 305.992 48.3939 304.85 49.3968C303.737 50.379 302.841 51.5828 302.22 52.9311C301.577 54.3388 301.251 55.8709 301.267 57.4185V82.3883H296.562V43.0397H301.279Z" fill="#4D4D4D"></path> <path d="M339.324 81.0495C337.957 79.9558 337.274 78.1424 337.274 75.6092V46.924H331.339V43.0398H337.274V30.9409H341.99V43.0398H349.3V46.924H341.99V74.8492C341.99 76.2726 342.308 77.2497 342.943 77.7805C343.579 78.3112 344.527 78.5766 345.79 78.5766C346.366 78.5735 346.94 78.5088 347.503 78.3836C347.986 78.2874 348.458 78.1461 348.914 77.9614H349.143V81.9904C347.745 82.4608 346.277 82.6932 344.801 82.6779C342.517 82.6779 340.692 82.1311 339.324 81.0374" fill="#4D4D4D"></path> <path d="M363.257 81.8094C361.046 80.8028 359.085 79.3199 357.515 77.4668C355.939 75.6172 354.732 73.4379 353.896 70.9288C353.06 68.4198 352.642 65.6936 352.642 62.7503C352.642 59.807 353.06 57.0808 353.896 54.5718C354.732 52.0627 355.939 49.8794 357.515 48.0217C359.086 46.1693 361.047 44.6864 363.257 43.6791C365.517 42.6417 368.066 42.123 370.905 42.123C373.743 42.123 376.281 42.6417 378.516 43.6791C380.712 44.6937 382.659 46.1758 384.222 48.0217C385.798 49.8713 386.988 52.0547 387.792 54.5718C388.597 57.0889 389.003 59.815 389.011 62.7503C389.011 65.6936 388.605 68.4198 387.792 70.9288C386.98 73.4379 385.79 75.6172 384.222 77.4668C382.66 79.3133 380.712 80.7955 378.516 81.8094C376.289 82.8468 373.751 83.3655 370.905 83.3655C368.058 83.3655 365.509 82.8468 363.257 81.8094ZM376.695 78.1182C378.351 77.2726 379.784 76.0495 380.881 74.5476C381.998 73.0277 382.835 71.2505 383.39 69.2159C384.507 64.9779 384.507 60.5227 383.39 56.2847C382.835 54.2501 381.998 52.4729 380.881 50.953C379.785 49.4501 378.351 48.2268 376.695 47.3824C375.022 46.5139 373.096 46.0836 370.917 46.0917C368.737 46.0997 366.795 46.53 365.09 47.3824C363.443 48.241 362.012 49.4618 360.905 50.953C359.763 52.4729 358.914 54.2501 358.359 56.2847C357.245 60.5231 357.245 64.9775 358.359 69.2159C358.914 71.2425 359.763 73.0197 360.905 74.5476C362.013 76.0377 363.444 77.2582 365.09 78.1182C366.739 78.9787 368.681 79.4089 370.917 79.4089C373.152 79.4089 375.078 78.9787 376.695 78.1182Z" fill="#4D4D4D"></path> <path d="M395.042 49.578C392.123 49.578 390.097 47.5515 390.097 44.5237C390.097 41.496 392.171 39.4453 395.042 39.4453C397.913 39.4453 400 41.496 400 44.5237C400 47.5515 397.925 49.578 395.042 49.578ZM395.042 40.0243C392.69 40.0243 390.808 41.6407 390.808 44.5117C390.808 47.3826 392.678 48.9749 395.042 48.9749C397.407 48.9749 399.301 47.3585 399.301 44.5117C399.301 41.6649 397.407 40.0243 395.042 40.0243ZM396.502 47.2258L394.825 44.8253H394.282V47.1413H393.317V41.5201H395.018C396.188 41.5201 396.972 42.1112 396.972 43.1606C396.972 43.9688 396.538 44.4875 395.839 44.7047L397.455 46.9966L396.502 47.2258ZM395.03 42.4127H394.282V44.0653H394.982C395.609 44.0653 396.007 43.8 396.007 43.233C396.007 42.6661 395.658 42.4007 395.03 42.4007" fill="#4D4D4D"></path> </svg> 