<?xml version="1.0" encoding="UTF-8"?> <svg xmlns="http://www.w3.org/2000/svg" width="32" height="22" viewBox="0 0 32 22" fill="none"> <path d="M28.1631 10.6536C29.6836 10.6536 30.7043 11.3222 31.3291 12.1528V0.321583C31.3291 0.0987352 31.0584 -0.0430769 30.8709 0.0987355L15.8529 10.7752H16.2486C17.8109 10.7752 18.6024 11.7476 18.6024 12.8011C18.6024 13.6317 18.165 14.2395 17.5609 14.5028C17.4568 14.5433 17.4568 14.6852 17.5609 14.7257C18.2483 15.0093 18.7482 15.7184 18.7482 16.5692C18.7482 17.7848 17.9358 18.7369 16.3736 18.7369H12.1036C12.0203 18.7369 11.937 18.6762 11.937 18.5749V13.5507L0.751571 21.5124C0.564106 21.6745 0.647423 21.9581 0.897376 21.9581H31.0584C31.2042 21.9581 31.3083 21.8568 31.3083 21.715V17.6835C30.496 18.4128 29.4337 18.8787 28.1422 18.8787C25.726 18.8787 23.7681 17.258 23.7681 14.7662C23.7889 12.2541 25.7677 10.6536 28.1631 10.6536ZM22.185 18.5951C22.185 18.6762 22.1225 18.7369 22.0392 18.7369H20.602C20.5187 18.7369 20.4562 18.6762 20.4562 18.5951V10.917C20.4562 10.836 20.5187 10.7752 20.602 10.7752H22.0392C22.1225 10.7752 22.185 10.836 22.185 10.917V18.5951Z" fill="#34313F"></path> <path d="M13.8532 13.9355H15.8736C16.4568 13.9355 16.8318 13.6114 16.8318 13.1049C16.8318 12.6187 16.4568 12.2743 15.8736 12.2743H13.7698C13.7282 12.2743 13.6865 12.3148 13.6865 12.3553V13.7937C13.6865 13.8747 13.7698 13.9355 13.8532 13.9355Z" fill="#34313F"></path> <path d="M13.8532 17.2582H15.9569C16.6026 17.2582 16.9984 16.9138 16.9984 16.3466C16.9984 15.8401 16.6235 15.4349 15.9569 15.4349H13.8532C13.7698 15.4349 13.6865 15.4957 13.6865 15.597V17.0962C13.6865 17.1772 13.7698 17.2582 13.8532 17.2582Z" fill="#34313F"></path> <path d="M30.0167 13.0644C29.621 12.5579 28.9544 12.1527 28.1629 12.1527C26.6632 12.1527 25.5801 13.267 25.5801 14.7661C25.5801 16.2653 26.6632 17.3795 28.1629 17.3795C28.8503 17.3795 29.496 17.0959 29.8501 16.8123C29.8709 16.792 29.8918 16.7515 29.8918 16.711V15.9411C29.8918 15.8804 29.8293 15.8196 29.7668 15.8196H27.913C27.8088 15.8196 27.7463 15.7385 27.7463 15.6575V14.523C27.7463 14.4217 27.8297 14.3609 27.913 14.3609H31.3498V12.5579L30.2459 13.1454C30.1625 13.1657 30.0584 13.1251 30.0167 13.0644Z" fill="#34313F"></path> </svg> 