<?xml version="1.0" encoding="UTF-8"?> <svg xmlns="http://www.w3.org/2000/svg" width="100" height="36" viewBox="0 0 100 36" fill="none"> <path fill-rule="evenodd" clip-rule="evenodd" d="M11.2127 10.9464H0V0.373535H11.2431V10.9464H11.2127ZM24.0707 23.0731H12.8275V12.4698H24.0707V23.0731ZM37.4162 23.0731H26.1731V12.4698H37.4162V23.0731ZM24.0707 35.6264H12.8275V25.0536H24.0707V35.6264ZM37.4162 35.6264H26.1731V25.0536H37.4162V35.6264Z" fill="#00CCFF"></path> <path fill-rule="evenodd" clip-rule="evenodd" d="M65.2955 26.9427C65.2955 27.3997 64.9908 27.8263 64.5643 27.9786C64.1377 28.131 63.5893 28.07 63.2541 27.7349C62.9189 27.3997 62.7971 26.9122 62.9799 26.4856C63.1627 26.0591 63.6197 25.7848 64.1072 25.7848C64.7471 25.8153 65.2955 26.3333 65.2955 26.9427ZM52.468 27.4606C51.5234 27.8567 50.4875 28.0396 49.4515 28.0396C46.2827 28.0396 44.2108 26.0286 44.2108 23.0121C44.2108 19.9652 46.4351 17.741 49.8476 17.741C50.7617 17.7105 51.6758 17.9238 52.4984 18.2589L52.0719 19.63C51.3711 19.2949 50.6094 19.1425 49.8476 19.173C47.4406 19.173 46.1304 20.8793 46.1304 22.8903C46.1304 25.1754 47.6843 26.577 49.7867 26.577C50.6094 26.577 51.4016 26.4247 52.1328 26.12L52.468 27.4606ZM54.3875 25.9981C55.1493 26.4247 56.0329 26.6684 56.947 26.6989C58.3181 26.6989 58.9579 26.0591 58.9579 25.2364C58.9579 24.3832 58.4095 23.9262 57.0079 23.4387C55.0883 22.7988 54.2047 21.8238 54.2047 20.6355C54.2047 19.0511 55.6063 17.741 57.8306 17.741C58.7446 17.7105 59.6283 17.9238 60.39 18.3503L59.9329 19.6605C59.2931 19.2949 58.5314 19.0816 57.7696 19.0816C56.6423 19.0816 56.0329 19.691 56.0329 20.4222C56.0329 21.2449 56.6423 21.6105 58.0134 22.1285C59.8111 22.7684 60.7861 23.6215 60.7861 25.084C60.7861 26.8513 59.3236 28.07 56.8556 28.07C55.8196 28.07 54.8141 27.8567 53.9 27.3692L54.3875 25.9981ZM74.9543 27.4606C74.0097 27.8567 72.9738 28.0396 71.9378 28.0396C68.769 28.0396 66.6971 26.0286 66.6971 23.0121C66.6971 19.9652 68.9214 17.741 72.3644 17.741C73.2785 17.7105 74.1926 17.9238 75.0152 18.2589L74.5886 19.63C73.8879 19.2949 73.1261 19.1425 72.3644 19.173C69.9573 19.173 68.6471 20.8793 68.6471 22.8903C68.6471 25.1754 70.2011 26.577 72.3035 26.577C73.1261 26.577 73.9183 26.4247 74.6496 26.12L74.9543 27.4606ZM84.8263 25.4497C84.8263 26.2419 84.8568 27.0341 84.9787 27.8263H83.2724L83.12 26.577H83.0591C82.2974 27.5216 81.1091 28.07 79.8294 28.0396C77.6965 28.0396 76.5996 26.638 76.5996 25.2059C76.5996 22.8293 78.8543 21.5191 82.9372 21.5496V21.3363C82.9372 20.5441 82.6935 19.0511 80.5302 19.0816C79.5551 19.0816 78.5801 19.3254 77.7574 19.8129L77.3309 18.6246C78.3973 18.0456 79.5856 17.741 80.8044 17.7714C84.0341 17.7714 84.7958 19.8433 84.7958 21.7934L84.8263 25.4497ZM82.9677 22.7684C80.8653 22.7379 78.5192 23.0731 78.5192 24.9926C78.5192 26.1809 79.3419 26.6989 80.3169 26.6989C81.4747 26.7294 82.5107 26.0591 82.9068 25.0536C82.9677 24.8708 82.9982 24.6879 82.9982 24.4747L82.9677 22.7684ZM87.9342 21.0316C87.9342 19.8738 87.9037 18.8683 87.8428 17.9542H89.5186L89.61 19.9043H89.6709C90.1584 18.5636 91.3163 17.741 92.596 17.741C92.7788 17.741 92.9311 17.7714 93.114 17.7714V19.4777C92.9007 19.4472 92.6874 19.4168 92.4741 19.4472C91.1335 19.4472 90.1584 20.3918 89.9147 21.7324C89.8842 22.0066 89.8537 22.2809 89.8537 22.5551V27.8263H87.9342V21.0316ZM97.2578 15.5776V17.9542H100V19.3254H97.2578V24.627C97.2578 25.8458 97.6234 26.5466 98.6898 26.5466C99.0555 26.577 99.4516 26.5161 99.7867 26.4247L99.8781 27.7958C99.3297 27.9786 98.7508 28.0396 98.1718 28.0396C97.2882 28.0396 96.557 27.7653 96.0999 27.2778C95.582 26.7294 95.3687 25.8458 95.3687 24.6879V16.1261L97.2578 15.5776Z" fill="#7B7B7B"></path> </svg> 