<?xml version="1.0" encoding="UTF-8"?> <svg xmlns="http://www.w3.org/2000/svg" width="280" height="110" viewBox="0 0 280 110" fill="none"> <path fill-rule="evenodd" clip-rule="evenodd" d="M13.6476 51.9637C5.13211 19.7808 0 0.357769 0 0.313169C0 0.167549 5.17321 0.287422 6.47337 0.463291C15.2698 1.65231 20.8313 5.87163 23.4754 13.3623C23.7112 14.0307 25.0132 18.8742 26.3687 24.1255C27.724 29.3768 31.0877 42.4104 33.8435 53.0892C36.5993 63.7681 38.9223 72.7585 39.0056 73.068C39.1363 73.5536 39.1736 73.5921 39.2773 73.3494C39.3433 73.1947 42.1551 62.5264 45.5258 49.6422C52.3237 23.6581 52.6018 22.6313 53.5476 20.0258C55.0791 15.8064 57.3698 11.8042 59.3702 9.85262C61.8666 7.41704 66.0749 5.73572 71.0663 5.17983C74.2172 4.82894 78.6907 5.58377 81.9726 7.01985C85.744 8.67035 88.092 11.1697 90.4894 16.0863C92.3891 19.9819 92.649 20.8231 96.5098 35.5726C104.802 67.2522 106.466 73.5589 106.529 73.5586C106.568 73.5584 110.013 60.3105 114.185 44.1188C118.358 27.9271 121.989 14.0779 122.256 13.3427C122.89 11.5941 124.042 9.38621 125.055 7.97954C127.735 4.25828 132.13 1.74137 137.837 0.659421C139.954 0.258016 145.651 0.100437 145.651 0.443313C145.651 0.563608 145.401 1.59997 145.096 2.74636C144.425 5.27157 142.854 11.1956 142.343 13.1317C141.702 15.5642 126.026 74.829 124.034 82.354C122.989 86.3005 121.5 91.9353 120.725 94.8759C119.95 97.8164 119.137 100.887 118.918 101.7C118.699 102.512 118.183 104.459 117.77 106.026L117.02 108.875H113.971C107.961 108.875 104.884 108.286 101.674 106.52C99.5015 105.325 98.3972 104.542 97.1577 103.318C94.9213 101.108 93.2915 98.057 91.6338 92.9765C90.6766 90.0425 90.1825 88.1444 86.2507 72.2942C84.168 63.8982 81.191 51.9004 79.6351 45.6324C75.8237 30.2781 75.4998 29.1821 74.492 28.2303C73.7756 27.5535 72.7019 27.3524 71.9388 27.7521C71.4549 28.0056 70.7386 28.7644 70.4591 29.32C69.8354 30.5596 68.1322 37.1639 61.8442 62.7269C55.5718 88.2263 54.5998 91.9048 53.1258 95.721C51.1192 100.917 49.0417 103.571 45.1605 105.897C41.3809 108.162 39.0151 108.716 32.628 108.836L28.7378 108.909L28.5222 108.153C28.4037 107.738 27.8225 105.562 27.2308 103.318C26.639 101.074 25.4667 96.6416 24.6257 93.4689C23.2574 88.3078 22.0649 83.7993 16.2521 61.8124C15.3724 58.4849 14.2003 54.053 13.6476 51.9637ZM181.114 0.738914C181.114 0.662235 181.96 0.530403 183.225 0.410109C185.326 0.21018 190.478 0.242118 192.4 0.466809C195.826 0.86751 198.122 1.49769 200.604 2.71864C202.572 3.68691 203.569 4.45159 205.678 6.61085C209.339 10.3587 211.105 12.7016 220.757 26.6176C224.898 32.5876 228.453 37.6541 228.658 37.8767C228.863 38.0993 229.284 38.3986 229.594 38.5419C230.687 39.0481 231.606 38.8203 232.567 37.8046C232.886 37.467 236.395 32.5055 240.363 26.7792C249.531 13.5508 250.755 11.8958 254.35 7.86754C258.371 3.36219 261.313 1.72786 267.308 0.668285C269.514 0.278417 274.794 0.140676 277.693 0.397445C278.792 0.494807 279.795 0.614117 279.921 0.662516C280.102 0.732161 278.471 3.24653 272.061 12.7799C267.612 19.3961 261.783 28.07 259.107 32.0552C256.432 36.0404 253.662 40.1558 252.954 41.2005C248.281 48.0898 243.877 54.7094 243.877 54.8447C243.877 54.9758 251.192 65.9305 258.16 76.2337C259.023 77.5105 261.558 81.2776 263.794 84.6051C266.029 87.9325 270.601 94.7324 273.953 99.7159C277.305 104.699 280.026 108.799 280 108.825C279.836 108.989 275.272 109.172 273.359 109.092C266.482 108.805 261.573 107.478 257.962 104.929C256.721 104.053 254.493 101.851 252.487 99.5187C249.441 95.9757 248.174 94.2177 236.312 77.0779C233.023 72.3249 232.293 71.4095 231.533 71.0823C230.617 70.6877 229.417 70.9955 228.658 71.8192C228.453 72.0418 225.041 76.909 221.076 82.6353C212.893 94.4535 211.867 95.9063 210.418 97.7345C206.494 102.684 203.756 105.186 200.776 106.544C198.39 107.631 194.883 108.507 191.387 108.889C189.552 109.09 183.846 109.137 182.211 108.966L181.127 108.852L184.744 103.483C186.733 100.53 189.628 96.2291 191.175 93.9258C192.723 91.6223 196.385 86.1769 199.313 81.8249C202.241 77.4729 206.042 71.8229 207.76 69.2693C209.478 66.7156 212.364 62.4281 214.175 59.7413L217.467 54.8562L213.421 48.8374C211.196 45.527 206.947 39.2096 203.979 34.7988C199.172 27.6541 193.42 19.0979 184.104 5.23485C182.459 2.78744 181.114 0.764239 181.114 0.738914ZM161.093 25.6404C167.032 22.8841 168.765 21.7944 171.005 19.4085L172.178 18.1597L172.218 19.9368C172.24 20.9144 172.234 37.9223 172.204 57.7322C172.165 83.2949 172.103 94.1587 171.99 95.1573C171.288 101.35 170.103 103.916 166.991 105.979C163.895 108.03 161.384 108.792 157.12 108.972C156.036 109.018 154.596 109.009 153.918 108.953L152.687 108.85L152.689 71.3318C152.692 39.5343 152.722 33.6707 152.891 32.8749C153.309 30.9022 154.4 29.3817 156.337 28.073C156.923 27.6775 159.063 26.5829 161.093 25.6404Z" fill="black"></path> <path d="M158.341 3.25371C160.732 1.4355 164.085 0.431353 168.797 0.121541C171.5 -0.0560166 172.052 -0.0446197 172.249 0.192734C172.388 0.359599 172.408 0.994981 172.34 2.97147C172.203 6.9156 171.818 8.81302 170.664 11.2323C170.026 12.5686 169.822 12.8455 168.533 14.1338C166.423 16.2433 163.253 18.2225 159.994 19.4659C157.541 20.4018 155.211 21.7235 153.469 23.1667C153.088 23.4824 152.724 23.7083 152.66 23.6688C152.47 23.5517 152.53 18.7944 152.751 16.438C153.14 12.2845 153.715 9.8581 154.873 7.48415C155.697 5.79355 156.85 4.38687 158.341 3.25371Z" fill="#FBBD71"></path> </svg> 