<?xml version="1.0" encoding="UTF-8"?> <svg xmlns="http://www.w3.org/2000/svg" width="400" height="88" viewBox="0 0 400 88" fill="none"> <path d="M110.055 42.447C116.137 42.447 120.219 45.1212 122.719 48.4437V1.11885C122.719 0.22746 121.636 -0.339788 120.886 0.227462L60.8139 42.9333H62.3969C68.6458 42.9333 71.8118 46.823 71.8118 51.0368C71.8118 54.3593 70.0621 56.7903 67.6459 57.8438C67.2294 58.0059 67.2294 58.5731 67.6459 58.7352C70.3954 59.8697 72.395 62.7059 72.395 66.1094C72.395 70.9716 69.1457 74.7803 62.8968 74.7803H45.8167C45.4835 74.7803 45.1502 74.5372 45.1502 74.132V54.0351L0.408627 85.8822C-0.341231 86.5304 -0.00796317 87.6649 0.991848 87.6649H121.636C122.219 87.6649 122.636 87.2598 122.636 86.6925V70.5664C119.386 73.4837 115.137 75.3475 109.971 75.3475C100.306 75.3475 92.4746 68.8647 92.4746 58.8973C92.5579 48.8489 100.473 42.447 110.055 42.447ZM86.1424 74.213C86.1424 74.5372 85.8925 74.7803 85.5592 74.7803H79.8103C79.4771 74.7803 79.2271 74.5372 79.2271 74.213V43.5005C79.2271 43.1764 79.4771 42.9333 79.8103 42.9333H85.5592C85.8925 42.9333 86.1424 43.1764 86.1424 43.5005V74.213Z" fill="#34313F"></path> <path d="M52.815 55.5746H60.8968C63.2297 55.5746 64.7294 54.2781 64.7294 52.2522C64.7294 50.3073 63.2297 48.9297 60.8968 48.9297H52.4817C52.3151 48.9297 52.1484 49.0918 52.1484 49.2538V55.0074C52.1484 55.3315 52.4817 55.5746 52.815 55.5746Z" fill="#34313F"></path> <path d="M52.815 68.8655H61.2301C63.8129 68.8655 65.3959 67.4879 65.3959 65.2189C65.3959 63.193 63.8962 61.5723 61.2301 61.5723H52.815C52.4817 61.5723 52.1484 61.8154 52.1484 62.2205V68.2172C52.1484 68.5413 52.4817 68.8655 52.815 68.8655Z" fill="#34313F"></path> <path d="M117.469 52.09C115.886 50.0641 113.22 48.4434 110.054 48.4434C104.055 48.4434 99.7227 52.9003 99.7227 58.897C99.7227 64.8936 104.055 69.3506 110.054 69.3506C112.804 69.3506 115.386 68.2161 116.803 67.0816C116.886 67.0005 116.969 66.8385 116.969 66.6764V63.597C116.969 63.3539 116.719 63.1108 116.47 63.1108H109.054C108.638 63.1108 108.388 62.7867 108.388 62.4625V57.9245C108.388 57.5194 108.721 57.2763 109.054 57.2763H122.802V50.0641L118.386 52.4141C118.053 52.4951 117.636 52.3331 117.469 52.09Z" fill="#34313F"></path> <path d="M127.885 58.898C127.885 49.0927 135.133 42.4478 144.465 42.4478C150.547 42.4478 154.463 45.4461 156.796 49.0927C156.963 49.3358 156.879 49.741 156.546 49.822L152.797 51.7669C152.547 51.9289 152.214 51.8479 152.13 51.6048C150.547 49.1737 147.631 47.3909 144.465 47.3909C138.216 47.3909 133.55 52.172 133.55 58.898C133.55 65.5429 138.216 70.405 144.465 70.405C147.631 70.405 150.547 68.6223 152.13 66.1912C152.297 65.9481 152.547 65.8671 152.797 66.0291L156.546 67.8929C156.879 68.055 156.963 68.3792 156.796 68.7033C154.38 72.3499 150.464 75.4293 144.465 75.4293C135.133 75.3482 127.885 68.6223 127.885 58.898Z" fill="#34313F"></path> <path d="M160.045 58.8962C160.045 50.9547 164.711 44.796 171.709 43.0132C183.624 39.9339 194.538 50.7926 191.956 62.8669C190.373 70.3222 184.29 75.4275 176.209 75.4275C166.71 75.3464 160.045 68.3774 160.045 58.8962ZM186.623 58.8962C186.623 52.3323 182.457 47.3891 176.125 47.3891C169.71 47.3891 165.627 52.3323 165.627 58.8962C165.627 65.4601 169.71 70.4033 176.125 70.4033C182.541 70.4033 186.623 65.3791 186.623 58.8962Z" fill="#34313F"></path> <path d="M226.283 74.3744V50.1448L216.368 74.5365C216.368 74.6175 216.201 74.6986 216.118 74.6986H214.035C213.952 74.6986 213.785 74.6175 213.785 74.5365L203.787 50.1448V74.3744C203.787 74.6175 203.62 74.7796 203.37 74.7796H198.371C198.121 74.7796 197.955 74.6175 197.955 74.3744V43.2567C197.955 43.0136 198.121 42.8516 198.371 42.8516H205.536C205.87 42.8516 206.12 43.0136 206.286 43.3378L215.035 65.2174L223.7 43.3378C223.783 43.0136 224.116 42.8516 224.45 42.8516H231.615C231.865 42.8516 232.031 43.0136 232.031 43.2567V74.3744C232.031 74.6175 231.865 74.7796 231.615 74.7796H226.616C226.533 74.7796 226.283 74.6175 226.283 74.3744Z" fill="#34313F"></path> <path d="M282.939 74.2134V43.5008C282.939 43.1767 283.189 42.9336 283.523 42.9336H304.769C305.102 42.9336 305.352 43.1767 305.352 43.5008V47.2285C305.352 47.5526 305.102 47.7957 304.769 47.7957H289.272C288.938 47.7957 288.688 48.0388 288.688 48.363V55.4131C288.688 55.7372 288.938 55.9803 289.272 55.9803H304.435C304.769 55.9803 305.019 56.2234 305.019 56.5476V60.2752C305.019 60.5994 304.769 60.8425 304.435 60.8425H289.272C288.938 60.8425 288.688 61.0856 288.688 61.4097V69.1081C288.688 69.4322 288.938 69.6754 289.272 69.6754H304.769C305.102 69.6754 305.352 69.9185 305.352 70.2426V73.9702C305.352 74.2944 305.102 74.5375 304.769 74.5375H283.523C283.189 74.7806 282.939 74.5375 282.939 74.2134Z" fill="#34313F"></path> <path d="M332.012 74.4565L325.097 63.1115C325.013 62.9494 324.764 62.8684 324.597 62.8684H319.764C319.431 62.8684 319.181 63.1115 319.181 63.4356V74.2133C319.181 74.5375 318.931 74.7806 318.598 74.7806H314.099C313.766 74.7806 313.516 74.5375 313.516 74.2133V43.5008C313.516 43.1767 313.766 42.9336 314.099 42.9336H327.93C334.428 42.9336 338.678 46.9854 338.678 52.901C338.678 58.1683 335.345 61.1666 331.679 62.058C331.262 62.139 331.096 62.5442 331.262 62.9494C332.595 65.0563 336.761 71.5392 338.344 73.8892C338.594 74.2944 338.344 74.7806 337.844 74.7806H332.595C332.345 74.7806 332.179 74.6996 332.012 74.4565ZM332.762 52.8199C332.762 49.7406 330.429 47.7957 327.18 47.7957H319.848C319.514 47.7957 319.265 48.0388 319.265 48.363V57.3579C319.265 57.6821 319.514 57.9252 319.848 57.9252H327.18C330.429 57.9252 332.762 55.9803 332.762 52.8199Z" fill="#34313F"></path> <path d="M377.504 74.2129V43.5004C377.504 43.1762 377.754 42.9331 378.088 42.9331H399.417C399.75 42.9331 400 43.1762 400 43.5004V47.309C400 47.6332 399.75 47.8763 399.417 47.8763H383.837C383.503 47.8763 383.253 48.1194 383.253 48.4435V55.5747C383.253 55.8988 383.503 56.1419 383.837 56.1419H399C399.334 56.1419 399.584 56.385 399.584 56.7092V60.5178C399.584 60.842 399.334 61.0851 399 61.0851H383.837C383.503 61.0851 383.253 61.3282 383.253 61.6523V69.4318C383.253 69.7559 383.503 69.999 383.837 69.999H399.417C399.75 69.999 400 70.2421 400 70.5663V74.3749C400 74.6991 399.75 74.9422 399.417 74.9422H378.088C377.754 74.7801 377.504 74.537 377.504 74.2129Z" fill="#34313F"></path> <path d="M342.844 58.7354C342.844 48.9301 350.092 42.2852 359.424 42.2852C365.506 42.2852 369.422 45.2835 371.755 48.9301C371.922 49.1732 371.838 49.5784 371.505 49.6594L367.756 51.6043C367.506 51.7663 367.173 51.6853 367.089 51.4422C365.506 49.0111 362.59 47.2283 359.424 47.2283C353.175 47.2283 348.509 52.0094 348.509 58.7354C348.509 65.3803 353.175 70.2425 359.424 70.2425C362.59 70.2425 365.506 68.4597 367.089 66.0286C367.256 65.7855 367.506 65.7045 367.756 65.8665L371.505 67.7303C371.838 67.8924 371.922 68.2166 371.755 68.5407C369.339 72.1873 365.423 75.2667 359.424 75.2667C350.092 75.1856 342.844 68.5407 342.844 58.7354Z" fill="#34313F"></path> <path d="M268.775 74.3744V50.1448L258.86 74.5365C258.86 74.6175 258.694 74.6986 258.61 74.6986H256.528C256.444 74.6986 256.278 74.6175 256.278 74.5365L246.279 50.1448V74.3744C246.279 74.6175 246.113 74.7796 245.863 74.7796H240.864C240.614 74.7796 240.447 74.6175 240.447 74.3744V43.2567C240.447 43.0136 240.614 42.8516 240.864 42.8516H248.029C248.362 42.8516 248.612 43.0136 248.779 43.3378L257.527 65.2174L266.192 43.3378C266.276 43.0136 266.609 42.8516 266.942 42.8516H274.108C274.358 42.8516 274.524 43.0136 274.524 43.2567V74.3744C274.524 74.6175 274.358 74.7796 274.108 74.7796H269.109C268.942 74.7796 268.775 74.6175 268.775 74.3744Z" fill="#34313F"></path> </svg> 