<?xml version="1.0" encoding="UTF-8"?> <svg xmlns="http://www.w3.org/2000/svg" width="26" height="18" viewBox="0 0 26 18" fill="none"><rect width="26" height="18" rx="3" fill="#535AE0"></rect><path d="M9.52 12H8.152L5.864 8.536V12H4.496V6.384H5.864L8.152 9.864V6.384H9.52V12ZM14.7196 9.696C14.7196 9.824 14.7116 9.95733 14.6956 10.096H11.5996C11.621 10.3733 11.709 10.5867 11.8636 10.736C12.0236 10.88 12.2183 10.952 12.4476 10.952C12.789 10.952 13.0263 10.808 13.1596 10.52H14.6156C14.541 10.8133 14.405 11.0773 14.2076 11.312C14.0156 11.5467 13.773 11.7307 13.4796 11.864C13.1863 11.9973 12.8583 12.064 12.4956 12.064C12.0583 12.064 11.669 11.9707 11.3276 11.784C10.9863 11.5973 10.7196 11.3307 10.5276 10.984C10.3356 10.6373 10.2396 10.232 10.2396 9.768C10.2396 9.304 10.333 8.89867 10.5196 8.552C10.7116 8.20533 10.9783 7.93867 11.3196 7.752C11.661 7.56533 12.053 7.472 12.4956 7.472C12.9276 7.472 13.3116 7.56267 13.6476 7.744C13.9836 7.92533 14.245 8.184 14.4316 8.52C14.6236 8.856 14.7196 9.248 14.7196 9.696ZM13.3196 9.336C13.3196 9.10133 13.2396 8.91467 13.0796 8.776C12.9196 8.63733 12.7196 8.568 12.4796 8.568C12.2503 8.568 12.0556 8.63467 11.8956 8.768C11.741 8.90133 11.645 9.09067 11.6076 9.336H13.3196ZM21.8493 7.536L20.6413 12H19.1293L18.4253 9.104L17.6973 12H16.1933L14.9773 7.536H16.3453L16.9773 10.728L17.7293 7.536H19.1773L19.9373 10.712L20.5613 7.536H21.8493Z" fill="white"></path></svg> 