<?xml version="1.0" encoding="UTF-8"?> <svg xmlns="http://www.w3.org/2000/svg" width="160" height="29" viewBox="0 0 160 29" fill="none"> <g clip-path="url(#clip0_3301_11675)"> <path d="M10.0845 28.6034H24.4614C26.4313 28.6034 28.028 26.9484 28.028 24.9074V20.8962H10.0845V28.6034Z" fill="#26A559"></path> <path d="M10.0845 18.1544H24.4614C26.4313 18.1544 28.028 16.4988 28.028 14.4585V10.4473H10.0845V18.1544Z" fill="#26A559"></path> <path d="M10.0845 7.70831H24.4614C26.4313 7.70831 28.028 6.0541 28.028 4.01233V0.00110763H10.0845V7.70831Z" fill="#26A559"></path> <path d="M0 7.70831H3.83118C5.80064 7.70831 7.39717 6.0541 7.39717 4.01233V0.00110763H0V7.70831Z" fill="#26A559"></path> <path d="M0 18.1544H3.83118C5.80064 18.1544 7.39717 16.4988 7.39717 14.4585V10.4473H0V18.1544Z" fill="#26A559"></path> <path d="M0 28.6034H3.83118C5.80064 28.6034 7.39717 26.9484 7.39717 24.9074V20.8962H0V28.6034Z" fill="#26A559"></path> <path d="M40.1589 18.5899L41.6413 18.0325C42.3821 20.2569 44.2736 21.5816 46.905 21.5816C49.4864 21.5816 51.4792 20.1781 51.4792 17.8742C51.4792 15.6497 50.2527 14.7764 48.5665 14.2197L44.989 13.1337C42.4076 12.3392 41.0788 10.8827 41.0788 8.39312C41.0788 5.42718 43.5321 3.49431 46.7514 3.49431C49.4864 3.49431 51.7093 4.52664 52.6805 6.93739L51.3001 7.51984C50.4573 5.8778 48.9498 4.92426 46.7776 4.92426C44.7586 4.92426 42.6886 5.98384 42.6886 8.23481C42.6886 9.79732 43.4298 10.9629 45.8321 11.7037L49.4089 12.7898C51.556 13.4245 53.0639 14.8022 53.0639 17.6879C53.0639 20.8401 50.6361 23.0381 46.8027 23.0381C43.4811 23.0381 40.9507 21.4491 40.1589 18.5899" fill="#313249"></path> <path d="M63.1817 15.2523V14.3525C63.1817 12.2863 62.0827 10.539 59.6301 10.539C57.3046 10.539 56.0013 12.4189 56.0013 14.5373V15.2523H63.1817ZM54.4425 17.7425V14.8819C54.4425 11.2533 56.7167 9.24087 59.7575 9.24087C62.5941 9.24087 64.6641 11.0419 64.6641 14.432V16.3649H56.0013V17.9267C56.0013 20.2572 57.432 21.7408 59.8853 21.7408C61.5213 21.7408 62.5941 20.9198 63.2844 20.0458L64.4082 20.7873C63.233 22.5353 61.47 23.0648 59.783 23.0648C56.6653 23.0648 54.4425 21.3698 54.4425 17.7425" fill="#313249"></path> <path d="M74.5775 17.9532V16.4709H71.1536C69.416 16.4709 67.6268 16.9209 67.6268 19.1718C67.6268 20.9464 69.1092 21.7932 70.7193 21.7932C73.2745 21.7932 74.5775 20.2307 74.5775 17.9532ZM66.1196 19.2506C66.1196 16.2847 68.7513 15.3053 70.8467 15.3053H74.5775V13.2664C74.5775 11.201 73.2494 10.486 71.332 10.486C69.7481 10.486 68.0618 11.0685 68.0618 12.79V13.2141H66.6817V12.8165C66.6817 10.1944 69.0327 9.21438 71.4095 9.21438C73.8879 9.21438 76.0857 10.1414 76.0857 13.0013V19.4097C76.0857 20.1784 76.188 22.1378 76.2641 22.7202H74.782C74.7311 22.2703 74.6797 21.0259 74.6797 20.6283H74.6288C73.5814 22.6672 71.869 23.0111 70.3105 23.0111C68.0105 23.0111 66.1196 21.6879 66.1196 19.2506" fill="#313249"></path> <path d="M78.6154 9.5324H80.072V12.3393H80.1229C81.2478 9.98232 83.1387 9.34756 84.8504 9.34756C85.1573 9.34756 85.49 9.37335 85.7452 9.42635V10.8829C85.3109 10.8033 84.8763 10.8033 84.569 10.8033C82.1164 10.8033 80.1997 12.3923 80.1229 15.3848V22.7201H78.6154V9.5324Z" fill="#313249"></path> <path d="M86.3838 17.7684V14.6964C86.3838 11.2799 88.4024 9.24094 91.4687 9.24094C94.4586 9.24094 96.3236 10.989 96.3236 13.6111V14.008H94.8678V13.4778C94.8678 12.1274 93.8965 10.5391 91.4942 10.5391C89.1181 10.5391 87.9422 12.2864 87.9422 14.5904V17.7949C87.9422 20.0982 88.9896 21.7409 91.5197 21.7409C93.922 21.7409 94.8678 20.1784 94.8678 18.8008V18.3508H96.3236V18.6954C96.3236 21.3168 94.5103 23.0641 91.4942 23.0641C88.3259 23.0641 86.3838 21.1585 86.3838 17.7684Z" fill="#313249"></path> <path d="M98.2137 3.81256H99.6961V12.0484H99.7726C100.642 10.1678 102.354 9.2143 104.092 9.2143C106.75 9.2143 108.053 11.0684 108.053 13.3724V22.7201H106.545V14.0874C106.545 11.6243 105.37 10.592 103.632 10.592C101.613 10.592 99.6961 12.234 99.6961 14.8289V22.7201H98.2137V3.81256" fill="#313249"></path> <path d="M118.529 17.9532V16.4709H115.104C113.367 16.4709 111.577 16.9209 111.577 19.1718C111.577 20.9464 113.06 21.7932 114.67 21.7932C117.225 21.7932 118.529 20.2307 118.529 17.9532V17.9532ZM110.07 19.2506C110.07 16.2847 112.703 15.3053 114.798 15.3053H118.529V13.2664C118.529 11.201 117.2 10.486 115.284 10.486C113.699 10.486 112.013 11.0685 112.013 12.79V13.2141H110.632V12.8165C110.632 10.1944 112.984 9.21438 115.36 9.21438C117.838 9.21438 120.036 10.1414 120.036 13.0013V19.4097C120.036 20.1784 120.139 22.1378 120.215 22.7202H118.733C118.682 22.2703 118.631 21.0259 118.631 20.6283H118.58C117.532 22.6672 115.82 23.0111 114.261 23.0111C111.962 23.0111 110.07 21.6879 110.07 19.2506" fill="#313249"></path> <path d="M122.618 9.5324H124.049V12.0485H124.1C124.994 10.1679 126.706 9.21431 128.496 9.21431C131.153 9.21431 132.456 11.0684 132.456 13.3724V22.7201H130.949V14.0874C130.949 11.6243 129.773 10.592 128.035 10.592C126.017 10.592 124.1 12.234 124.1 14.8289V22.7201H122.618V9.5324" fill="#313249"></path> <path d="M135.164 9.53239H136.646V22.7201H135.164V9.53239ZM135.164 3.65352H136.646V6.3551H135.164V3.65352Z" fill="#313249"></path> <path d="M138.538 21.1044L139.559 20.2039C140.633 21.2635 141.834 21.7936 143.52 21.7936C145.156 21.7936 146.817 20.8666 146.817 19.1716C146.817 17.5561 145.846 17.0531 144.082 16.7086L142.677 16.3905C140.428 15.9405 139.074 14.8817 139.074 13.0276C139.074 10.8827 140.684 9.21414 143.495 9.21414C145.283 9.21414 146.765 9.63827 147.736 10.6706L146.74 11.5454C145.922 10.8562 144.874 10.4328 143.367 10.4328C141.68 10.4328 140.556 11.4128 140.556 12.7633C140.556 14.1402 141.578 14.6696 143.443 15.093L145.334 15.5171C147.123 15.9405 148.375 16.9206 148.375 18.8535C148.375 21.6346 145.948 23.0381 143.546 23.0381C141.527 23.0381 139.713 22.5086 138.538 21.1044Z" fill="#313249"></path> <path d="M158.519 15.2523V14.3525C158.519 12.2863 157.421 10.539 154.967 10.539C152.642 10.539 151.339 12.4189 151.339 14.5373V15.2523H158.519ZM149.78 17.7425V14.8819C149.78 11.2533 152.054 9.24087 155.095 9.24087C157.931 9.24087 160.002 11.0419 160.002 14.432V16.3649H151.339V17.9267C151.339 20.2572 152.77 21.7408 155.223 21.7408C156.859 21.7408 157.931 20.9198 158.622 20.0458L159.746 20.7873C158.571 22.5353 156.808 23.0648 155.12 23.0648C152.003 23.0648 149.78 21.3698 149.78 17.7425Z" fill="#313249"></path> </g> <defs> <clipPath id="clip0_3301_11675"> <rect width="160" height="28.6034" fill="white"></rect> </clipPath> </defs> </svg> 