<?xml version="1.0" encoding="UTF-8"?> <svg xmlns="http://www.w3.org/2000/svg" width="916" height="161" fill="none"> <path d="M57.928 161h82.585c11.315 0 20.487-9.315 20.487-20.804v-22.579H57.928V161zm0-58.816h82.585c11.315 0 20.487-9.32 20.487-20.805V58.801H57.928v43.383zm0-58.801h82.585c11.315 0 20.487-9.311 20.487-20.804V0H57.928v43.383zM0 43.383h22.007c11.314 0 20.485-9.311 20.485-20.804V0H0v43.383zm0 58.801h22.007c11.314 0 20.485-9.32 20.485-20.805V58.801H0v43.383zM0 161h22.007c11.314 0 20.485-9.315 20.485-20.804v-22.579H0V161z" fill="#26A559"></path> <path d="m225 109.847 8.535-3.133c4.265 12.504 15.156 19.949 30.306 19.949 14.863 0 26.336-7.888 26.336-20.838 0-12.504-7.061-17.412-16.77-20.54L252.81 79.18c-14.863-4.466-22.513-12.652-22.513-26.646 0-16.67 14.125-27.534 32.66-27.534 15.747 0 28.545 5.802 34.137 19.352l-7.948 3.274c-4.852-9.23-13.532-14.589-26.039-14.589-11.624 0-23.542 5.956-23.542 18.608 0 8.782 4.268 15.333 18.099 19.497l20.593 6.105c12.362 3.567 21.044 11.31 21.044 27.531 0 17.717-13.978 30.071-36.049 30.071-19.124 0-33.693-8.931-38.252-25.002m132.555-18.759V86.03c0-11.613-6.328-21.434-20.449-21.434-13.389 0-20.893 10.566-20.893 22.473v4.02h41.342zm-50.317 13.997V89.006c0-20.395 13.094-31.706 30.602-31.706 16.332 0 28.25 10.123 28.25 29.177v10.865h-49.877v8.778c0 13.099 8.238 21.438 22.363 21.438 9.419 0 15.596-4.614 19.57-9.527l6.47 4.168C357.85 132.024 347.699 135 337.987 135c-17.951 0-30.749-9.527-30.749-29.915m115.928 1.185v-8.331h-19.713c-10.004 0-20.306 2.529-20.306 15.181 0 9.974 8.535 14.734 17.806 14.734 14.711 0 22.213-8.783 22.213-21.584zm-48.696 7.293c0-16.67 15.152-22.175 27.216-22.175h21.48v-11.46c0-11.61-7.646-15.629-18.686-15.629-9.119 0-18.828 3.274-18.828 12.95v2.384h-7.946V77.4c0-14.738 13.536-20.247 27.221-20.247 14.269 0 26.923 5.21 26.923 21.285v36.02c0 4.32.589 15.334 1.027 18.607h-8.533c-.294-2.528-.589-9.523-.589-11.758h-.294c-6.03 11.46-15.889 13.393-24.862 13.393-13.243 0-24.129-7.437-24.129-21.136m71.943-54.627h8.386v15.777h.294c6.476-13.248 17.363-16.816 27.218-16.816 1.767 0 3.683.145 5.152.443v8.187c-2.5-.447-5.003-.447-6.772-.447-14.121 0-25.156 8.931-25.598 25.751v41.23h-8.68V58.937zm44.728 46.293V87.963c0-19.203 11.622-30.664 29.277-30.664 17.214 0 27.952 9.826 27.952 24.564v2.23h-8.382v-2.98c0-7.59-5.592-16.517-19.424-16.517-13.68 0-20.45 9.821-20.45 22.771v18.012c0 12.946 6.03 22.179 20.597 22.179 13.832 0 19.277-8.782 19.277-16.526v-2.529h8.382v1.937c0 14.734-10.44 24.555-27.806 24.555-18.241 0-29.423-10.711-29.423-29.765zm68.112-78.442h8.535v46.291h.44c5.005-10.57 14.863-15.93 24.871-15.93 15.299 0 22.803 10.422 22.803 23.372v52.541h-8.682V84.54c0-13.845-6.766-19.647-16.772-19.647-11.623 0-22.66 9.23-22.66 23.814v44.355h-8.535V26.788m116.963 79.482v-8.331h-19.715c-10.002 0-20.308 2.529-20.308 15.181 0 9.974 8.537 14.734 17.808 14.734 14.711 0 22.215-8.783 22.215-21.584zm-48.7 7.293c0-16.67 15.158-22.175 27.218-22.175h21.482v-11.46c0-11.61-7.65-15.629-18.684-15.629-9.124 0-18.832 3.274-18.832 12.95v2.384h-7.948V77.4c0-14.738 13.542-20.247 27.222-20.247 14.268 0 26.922 5.21 26.922 21.285v36.02c0 4.32.591 15.334 1.031 18.607h-8.533c-.296-2.528-.589-9.523-.589-11.758h-.296c-6.03 11.46-15.889 13.393-24.864 13.393-13.239 0-24.129-7.437-24.129-21.136m72.243-54.626H708v14.141h.296c5.145-10.57 15.005-15.93 25.307-15.93 15.296 0 22.802 10.422 22.802 23.372v52.541h-8.679V84.54c0-13.844-6.768-19.647-16.775-19.647-11.622 0-22.655 9.23-22.655 23.814v44.355h-8.537V58.937m72.235 0h8.533v74.125h-8.533V58.937zm0-33.043h8.533v15.185h-8.533V25.894zm19.428 98.087 5.879-5.061c6.181 5.955 13.096 8.935 22.807 8.935 9.417 0 18.979-5.211 18.979-14.738 0-9.08-5.588-11.907-15.743-13.844l-8.093-1.788c-12.947-2.529-20.744-8.48-20.744-18.901 0-12.056 9.271-21.435 25.454-21.435 10.298 0 18.83 2.384 24.422 8.187l-5.738 4.916C833.939 66.38 827.905 64 819.225 64c-9.712 0-16.185 5.508-16.185 13.099 0 7.74 5.884 10.715 16.625 13.095l10.887 2.384c10.302 2.38 17.51 7.888 17.51 18.752 0 15.632-13.974 23.52-27.808 23.52-11.622 0-22.066-2.975-28.832-10.868zm115.043-32.893V86.03c0-11.613-6.324-21.434-20.451-21.434-13.389 0-20.892 10.566-20.892 22.473v4.02h41.343zm-50.319 13.997V89.006c0-20.395 13.096-31.706 30.604-31.706 16.328 0 28.25 10.123 28.25 29.177v10.865h-49.878v8.778c0 13.099 8.239 21.438 22.366 21.438 9.417 0 15.59-4.614 19.566-9.527l6.473 4.168C906.761 132.024 896.61 135 886.895 135c-17.948 0-30.749-9.527-30.749-29.915z" fill="#313249"></path> </svg> 