<?xml version="1.0" encoding="UTF-8"?> <svg xmlns="http://www.w3.org/2000/svg" width="28" height="30" viewBox="0 0 28 30" fill="none"> <path d="M23.9379 5.7767C23.9171 5.6252 23.7847 5.54115 23.6749 5.532C23.5659 5.52285 21.4302 5.4904 21.4302 5.4904C21.4302 5.4904 19.6441 3.75588 19.4676 3.57943C19.2912 3.40298 18.9466 3.45625 18.8126 3.4962C18.8109 3.49703 18.4772 3.60023 17.9154 3.77418C17.8214 3.46956 17.6832 3.09503 17.4859 2.71883C16.85 1.50533 15.9187 0.863625 14.7934 0.861965C14.7917 0.861965 14.7909 0.861965 14.7893 0.861965C14.711 0.861965 14.6336 0.869455 14.5554 0.87611C14.5221 0.83616 14.4888 0.797045 14.4538 0.758755C13.9636 0.234408 13.3352 -0.0211091 12.582 0.00136306C11.1288 0.0429781 9.68145 1.09251 8.5079 2.95687C7.68225 4.26857 7.05385 5.91655 6.87575 7.19245C5.20697 7.7093 4.04009 8.0705 4.01429 8.07885C3.172 8.3435 3.14536 8.3693 3.0355 9.16335C2.95394 9.7634 0.75 26.8057 0.75 26.8057L19.2196 30L27.2246 28.01C27.2246 28.01 23.9587 5.9282 23.9379 5.7767ZM16.9907 4.06049C16.5654 4.192 16.0818 4.34181 15.5575 4.50412C15.5466 3.76836 15.4593 2.74463 15.1164 1.85989C16.2192 2.0688 16.7618 3.31642 16.9907 4.06049ZM14.5912 4.80374C13.6232 5.10335 12.567 5.43045 11.5075 5.7584C11.8054 4.6173 12.3706 3.48122 13.0647 2.7363C13.3228 2.45915 13.6839 2.15036 14.1117 1.97391C14.5138 2.81288 14.6012 4.00057 14.5912 4.80374ZM12.6111 0.968495C12.9524 0.961005 13.2395 1.03591 13.4851 1.19738C13.0922 1.40129 12.7127 1.69426 12.3565 2.07629C11.4334 3.06673 10.726 4.60399 10.4438 6.08715C9.56405 6.3593 8.70345 6.6265 7.9111 6.8712C8.41135 4.53658 10.368 1.03341 12.6111 0.968495Z" fill="#95BF47"></path> <path d="M23.676 5.53291C23.567 5.52376 21.4313 5.49131 21.4313 5.49131C21.4313 5.49131 19.6452 3.75678 19.4688 3.58033C19.403 3.51458 19.314 3.48045 19.2207 3.46631L19.2216 29.9993L27.2258 28.0101C27.2258 28.0101 23.9599 5.92911 23.9391 5.77761C23.9182 5.62611 23.7851 5.54206 23.676 5.53291Z" fill="#5E8E3E"></path> <path d="M14.7838 9.64857L13.8541 13.1267C13.8541 13.1267 12.8171 12.6548 11.5878 12.7322C9.78495 12.8463 9.7658 13.9832 9.78415 14.2687C9.88235 15.8242 13.9748 16.1638 14.2045 19.8076C14.3851 22.6741 12.6839 24.635 10.2328 24.7898C7.29055 24.9754 5.6709 23.24 5.6709 23.24L6.2943 20.5883C6.2943 20.5883 7.92475 21.8185 9.2298 21.7361C10.0821 21.682 10.3867 20.9887 10.3559 20.4984C10.2278 18.4693 6.8952 18.5891 6.68465 15.2549C6.50735 12.4493 8.3501 9.60612 12.4159 9.34977C13.9823 9.24907 14.7838 9.64857 14.7838 9.64857Z" fill="white"></path> </svg> 