<?xml version="1.0" encoding="UTF-8"?> <svg xmlns="http://www.w3.org/2000/svg" width="100" height="30" viewBox="0 0 100 30" fill="none"> <g clip-path="url(#clip0_334_13307)"> <path d="M21.5701 6.18764C21.5508 6.04671 21.4277 5.96852 21.3255 5.96001C21.2241 5.9515 19.2374 5.92131 19.2374 5.92131C19.2374 5.92131 17.5759 4.3078 17.4117 4.14366C17.2476 3.97953 16.9271 4.02908 16.8024 4.06624C16.8009 4.06702 16.4904 4.16302 15.9678 4.32483C15.8803 4.04147 15.7518 3.69306 15.5683 3.3431C14.9768 2.21427 14.1104 1.61734 13.0636 1.61579C13.0621 1.61579 13.0613 1.61579 13.0598 1.61579C12.987 1.61579 12.915 1.62276 12.8422 1.62895C12.8113 1.59179 12.7803 1.5554 12.7478 1.51978C12.2917 1.03202 11.7072 0.794329 11.0065 0.815233C9.6547 0.853945 8.30833 1.83025 7.21665 3.56454C6.4486 4.78473 5.86405 6.31773 5.69837 7.50462C4.14602 7.98541 3.06054 8.32141 3.03654 8.32917C2.25302 8.57536 2.22825 8.59936 2.12605 9.33801C2.05017 9.8962 0 25.7495 0 25.7495L17.181 28.7209L24.6276 26.8697C24.6276 26.8697 21.5895 6.32857 21.5701 6.18764ZM15.1076 4.59117C14.712 4.7135 14.2621 4.85286 13.7744 5.00384C13.7643 4.31942 13.683 3.36711 13.364 2.5441C14.3899 2.73843 14.8947 3.89901 15.1076 4.59117ZM12.8755 5.28256C11.9751 5.56127 10.9926 5.86555 10.007 6.17062C10.2841 5.10913 10.8099 4.0523 11.4556 3.35936C11.6956 3.10155 12.0316 2.8143 12.4295 2.65016C12.8035 3.43059 12.8848 4.53543 12.8755 5.28256ZM11.0336 1.71489C11.351 1.70792 11.6181 1.77761 11.8466 1.92781C11.4811 2.1175 11.128 2.39003 10.7967 2.7454C9.93805 3.66674 9.27995 5.09675 9.01749 6.47643C8.19912 6.72959 7.39856 6.97815 6.66149 7.20578C7.12684 5.03403 8.94702 1.77528 11.0336 1.71489Z" fill="#95BF47"></path> <path d="M21.3263 5.96099C21.225 5.95248 19.2383 5.9223 19.2383 5.9223C19.2383 5.9223 17.5768 4.30878 17.4126 4.14464C17.3515 4.08348 17.2686 4.05173 17.1819 4.03857L17.1827 28.7204L24.6285 26.87C24.6285 26.87 21.5904 6.32955 21.571 6.18862C21.5517 6.04769 21.4278 5.9695 21.3263 5.96099Z" fill="#5E8E3E"></path> <path d="M13.0542 9.78919L12.1894 13.0247C12.1894 13.0247 11.2247 12.5857 10.0812 12.6577C8.40418 12.7638 8.38636 13.8214 8.40343 14.087C8.49478 15.534 12.3017 15.8499 12.5154 19.2395C12.6834 21.9059 11.1008 23.73 8.82074 23.874C6.0838 24.0467 4.57715 22.4324 4.57715 22.4324L5.15706 19.9657C5.15706 19.9657 6.67376 21.11 7.88776 21.0334C8.6806 20.983 8.96394 20.3381 8.93529 19.8821C8.81608 17.9945 5.71604 18.106 5.52018 15.0044C5.35525 12.3945 7.06943 9.7497 10.8515 9.51123C12.3086 9.41756 13.0542 9.78919 13.0542 9.78919Z" fill="white"></path> <path d="M34.4335 16.5646C33.5773 16.1 33.1372 15.7084 33.1372 15.1701C33.1372 14.4851 33.7485 14.045 34.7031 14.045C35.8142 14.045 36.8064 14.5096 36.8064 14.5096L37.5889 12.1122C37.5889 12.1122 36.8693 11.5493 34.7514 11.5493C31.8041 11.5493 29.7615 13.2372 29.7615 15.6101C29.7615 16.9555 30.7152 17.9829 31.9877 18.7163C33.0151 19.303 33.3822 19.7192 33.3822 20.3305C33.3822 20.9663 32.8685 21.4801 31.9147 21.4801C30.4933 21.4801 29.151 20.7459 29.151 20.7459L28.3193 23.1434C28.3193 23.1434 29.5595 23.975 31.6459 23.975C34.6792 23.975 36.8563 22.4829 36.8563 19.7922C36.8555 18.35 35.7551 17.3225 34.4335 16.5646Z" fill="black"></path> <path d="M46.5176 11.5253C45.0255 11.5253 43.8513 12.2348 42.9467 13.3107L42.8976 13.2861L44.1938 6.51074H40.818L37.5405 23.7552H40.9163L42.0413 17.8606C42.4813 15.6344 43.6309 14.2652 44.7076 14.2652C45.4655 14.2652 45.7596 14.7789 45.7596 15.5131C45.7596 15.9777 45.7104 16.5406 45.6129 17.0052L44.3412 23.756H47.7172L49.0376 16.7847C49.1846 16.0506 49.2828 15.1706 49.2828 14.5831C49.2814 12.6748 48.2786 11.5253 46.5176 11.5253Z" fill="black"></path> <path d="M56.9131 11.5254C52.8521 11.5254 50.1624 15.1946 50.1624 19.2791C50.1624 21.8962 51.7763 23.9995 54.8098 23.9995C58.7968 23.9995 61.4875 20.4287 61.4875 16.2458C61.4875 13.8246 60.0684 11.5254 56.9131 11.5254ZM55.2498 21.4078C54.1 21.4078 53.6107 20.4294 53.6107 19.2061C53.6107 17.274 54.614 14.1187 56.4484 14.1187C57.647 14.1187 58.0377 15.1461 58.0377 16.1491C58.0377 18.2278 57.0358 21.4078 55.2498 21.4078Z" fill="black"></path> <path d="M70.1218 11.5254C67.8432 11.5254 66.5502 13.5312 66.5502 13.5312H66.5018L66.6976 11.7212H63.7134C63.5669 12.9445 63.2972 14.8029 63.0288 16.1974L60.6804 28.5494H64.0562L64.9851 23.5595H65.059C65.059 23.5595 65.7516 23.9995 67.0404 23.9995C71.0027 23.9995 73.5953 19.9395 73.5953 15.8296C73.5953 13.5558 72.592 11.5254 70.1218 11.5254ZM66.893 21.4561C66.0167 21.4561 65.4981 20.967 65.4981 20.967L66.0609 17.8116C66.4525 15.7083 67.553 14.3137 68.7274 14.3137C69.7548 14.3137 70.0725 15.2675 70.0725 16.1729C70.0725 18.3499 68.7762 21.4561 66.893 21.4561Z" fill="black"></path> <path d="M78.414 6.68213C77.3382 6.68213 76.4819 7.53836 76.4819 8.63878C76.4819 9.64171 77.1177 10.3267 78.0717 10.3267H78.1205C79.1726 10.3267 80.0773 9.61711 80.1019 8.37004C80.1019 7.39166 79.4415 6.68213 78.414 6.68213Z" fill="black"></path> <path d="M73.6934 23.7553H77.0683L79.3682 11.7949H75.9678L73.6934 23.7553Z" fill="black"></path> <path d="M87.9539 11.7703H85.6055L85.7274 11.2074C85.9232 10.0578 86.6083 9.03032 87.7334 9.03032C88.3339 9.03032 88.8093 9.20158 88.8093 9.20158L89.4697 6.55995C89.4697 6.55995 88.8827 6.2666 87.6348 6.2666C86.4362 6.2666 85.2386 6.60907 84.333 7.39158C83.1832 8.36995 82.6451 9.78828 82.3762 11.2074L82.279 11.7703H80.713L80.2237 14.3144H81.7897L80.0042 23.756H83.38L85.1655 14.3144H87.4893L87.9539 11.7703Z" fill="black"></path> <path d="M96.0744 11.7952C96.0744 11.7952 93.9642 17.1115 93.0168 20.0135H92.9675C92.9033 19.0789 92.1358 11.7952 92.1358 11.7952H88.5889L90.62 22.7772C90.6693 23.0215 90.6447 23.1689 90.5465 23.3401C90.1544 24.0981 89.4944 24.8322 88.7116 25.3705C88.0758 25.8351 87.3665 26.1284 86.8042 26.3242L87.7335 29.1863C88.4186 29.0396 89.8368 28.4768 91.0354 27.3517C92.5768 25.9088 93.9949 23.6826 95.4623 20.6493L99.5963 11.7944H96.0744V11.7952Z" fill="black"></path> </g> <defs> <clipPath id="clip0_334_13307"> <rect width="100" height="28.3721" fill="white" transform="translate(0 0.813965)"></rect> </clipPath> </defs> </svg> 