<?xml version="1.0" encoding="UTF-8"?> <svg xmlns="http://www.w3.org/2000/svg" width="40" height="16" viewBox="0 0 40 16" fill="none"> <path fill-rule="evenodd" clip-rule="evenodd" d="M2.40091 7.64364C1.21483 3.21934 0.5 0.549184 0.5 0.543052C0.5 0.523034 1.22055 0.539513 1.40165 0.56369C2.62687 0.727149 3.4015 1.3072 3.76979 2.33696C3.80264 2.42886 3.98399 3.0947 4.17278 3.81662C4.36156 4.53854 4.83007 6.33032 5.21391 7.79838C5.59776 9.26643 5.92131 10.5024 5.93292 10.5449C5.95113 10.6117 5.95632 10.617 5.97077 10.5836C5.97996 10.5623 6.37161 9.09574 6.84109 7.3245C7.78794 3.75237 7.82667 3.61121 7.95841 3.25302C8.17173 2.67297 8.49079 2.12277 8.76942 1.85448C9.11713 1.51965 9.7033 1.28851 10.3985 1.21209C10.8374 1.16385 11.4605 1.26762 11.9176 1.46505C12.4429 1.69195 12.77 2.03554 13.1039 2.71144C13.3685 3.24698 13.4047 3.36263 13.9424 5.3903C15.0975 9.74542 15.3292 10.6124 15.338 10.6124C15.3434 10.6123 15.8233 8.7911 16.4044 6.56517C16.9855 4.33924 17.4914 2.43533 17.5285 2.33427C17.6168 2.09389 17.7773 1.79036 17.9184 1.59698C18.2917 1.0854 18.9038 0.739393 19.6987 0.590653C19.9936 0.53547 20.7871 0.513807 20.7871 0.560944C20.7871 0.577481 20.7523 0.719954 20.7098 0.877552C20.6163 1.2247 20.3976 2.0391 20.3264 2.30526C20.237 2.63966 18.0536 10.787 17.7762 11.8215C17.6306 12.364 17.4232 13.1387 17.3153 13.5429C17.2073 13.9472 17.0941 14.3693 17.0636 14.481C17.0331 14.5927 16.9611 14.8604 16.9037 15.0758L16.7992 15.4675H16.3745C15.5375 15.4675 15.1089 15.3865 14.6618 15.1437C14.3591 14.9795 14.2053 14.8718 14.0327 14.7035C13.7212 14.3997 13.4942 13.9803 13.2633 13.2818C13.1299 12.8785 13.0611 12.6175 12.5135 10.4386C12.2234 9.28432 11.8087 7.63494 11.592 6.77325C11.0612 4.66245 11.016 4.51177 10.8757 4.38092C10.7759 4.28789 10.6263 4.26023 10.5201 4.31518C10.4526 4.35003 10.3529 4.45434 10.3139 4.53073C10.2271 4.70115 9.98984 5.60906 9.11401 9.1233C8.24035 12.6288 8.10497 13.1345 7.89967 13.6591C7.62018 14.3734 7.33081 14.7383 6.79021 15.058C6.26376 15.3694 5.93425 15.4456 5.04462 15.4621L4.50277 15.4721L4.47274 15.3682C4.45623 15.3111 4.37528 15.012 4.29286 14.7035C4.21044 14.395 4.04714 13.7857 3.93001 13.3495C3.73942 12.64 3.57333 12.0202 2.76368 8.99758C2.64116 8.54014 2.4779 7.93087 2.40091 7.64364ZM25.7265 0.601581C25.7265 0.59104 25.8445 0.572917 26.0206 0.556379C26.3133 0.528894 27.0309 0.533285 27.2986 0.564174C27.7758 0.61926 28.0955 0.705892 28.4413 0.873742C28.7154 1.00685 28.8543 1.11198 29.148 1.40882C29.6579 1.92405 29.9039 2.24613 31.2483 4.15923C31.825 4.97994 32.3202 5.67645 32.3488 5.70705C32.3773 5.73765 32.436 5.77881 32.4791 5.7985C32.6314 5.86809 32.7594 5.83677 32.8932 5.69714C32.9377 5.65072 33.4264 4.96865 33.9791 4.18143C35.2561 2.36288 35.4266 2.13536 35.9273 1.58158C36.4874 0.962212 36.8971 0.737536 37.7322 0.591872C38.0394 0.538275 38.7749 0.519339 39.1786 0.554638C39.3318 0.568023 39.4714 0.584425 39.489 0.591079C39.5142 0.600653 39.2871 0.946313 38.3942 2.2569C37.7746 3.16646 36.9626 4.35889 36.5899 4.90675C36.2172 5.45461 35.8316 6.02037 35.7328 6.16398C35.082 7.11108 34.4686 8.0211 34.4686 8.03971C34.4686 8.05773 35.4875 9.56372 36.4579 10.9801C36.5782 11.1557 36.9313 11.6735 37.2427 12.131C37.5541 12.5884 38.1908 13.5232 38.6578 14.2083C39.1247 14.8934 39.5037 15.4569 39.5 15.4606C39.4772 15.4831 38.8414 15.5083 38.575 15.4973C37.6171 15.4578 36.9334 15.2753 36.4304 14.925C36.2576 14.8046 35.9473 14.5019 35.6679 14.1812C35.2435 13.6941 35.067 13.4525 33.4149 11.0962C32.9568 10.4428 32.8551 10.3169 32.7492 10.2719C32.6217 10.2177 32.4545 10.26 32.3488 10.3733C32.3202 10.4039 31.845 11.073 31.2927 11.8602C30.1529 13.4849 30.0101 13.6846 29.8082 13.9359C29.2617 14.6164 28.8803 14.9603 28.4652 15.147C28.1329 15.2964 27.6444 15.4168 27.1574 15.4694C26.9019 15.4969 26.1071 15.5035 25.8794 15.48L25.7284 15.4643L26.2322 14.7262C26.5093 14.3202 26.9124 13.729 27.128 13.4123C27.3436 13.0957 27.8537 12.3471 28.2615 11.7488C28.6693 11.1505 29.1987 10.3738 29.438 10.0227C29.6772 9.67165 30.0793 9.08222 30.3315 8.71286L30.79 8.04129L30.2265 7.21386C29.9165 6.75877 29.3247 5.89029 28.9114 5.28392C28.2419 4.30172 27.4407 3.12546 26.1431 1.21965C25.914 0.8832 25.7265 0.605063 25.7265 0.601581ZM22.938 4.02488C23.7652 3.64597 24.0065 3.49616 24.3186 3.16816L24.4819 2.99648L24.4875 3.24079C24.4906 3.37518 24.4897 5.71331 24.4855 8.43666C24.4801 11.9509 24.4715 13.4444 24.4557 13.5816C24.358 14.433 24.1929 14.7857 23.7594 15.0693C23.3282 15.3513 22.9785 15.456 22.3846 15.4808C22.2336 15.4871 22.033 15.4859 21.9386 15.4781L21.7671 15.464L21.7675 10.3063C21.7678 5.93493 21.772 5.12884 21.7955 5.01944C21.8538 4.74825 22.0058 4.53922 22.2756 4.3593C22.3571 4.30493 22.6552 4.15445 22.938 4.02488Z" fill="black"></path> <path d="M22.5542 0.947299C22.8873 0.697343 23.3542 0.5593 24.0106 0.516709C24.387 0.492299 24.4639 0.493866 24.4914 0.526496C24.5107 0.549435 24.5136 0.636784 24.504 0.9085C24.485 1.45071 24.4314 1.71156 24.2705 2.04414C24.1817 2.22785 24.1534 2.26592 23.9738 2.44303C23.6799 2.73303 23.2383 3.00511 22.7844 3.17605C22.4428 3.30472 22.1181 3.48642 21.8756 3.68481C21.8225 3.72821 21.7718 3.75927 21.7629 3.75384C21.7365 3.73774 21.7448 3.08373 21.7755 2.7598C21.8297 2.1888 21.9098 1.85523 22.0711 1.52887C22.1859 1.29646 22.3466 1.10308 22.5542 0.947299Z" fill="#FBBD71"></path> </svg> 