<?xml version="1.0" encoding="UTF-8"?> <svg xmlns="http://www.w3.org/2000/svg" width="34" height="22" viewBox="0 0 34 22" fill="none"> <path fill-rule="evenodd" clip-rule="evenodd" d="M0.319357 2.83498C0.785946 1.71849 1.95242 0.918628 3.16888 0.918628C12.3507 0.918628 21.5325 0.918628 30.731 0.918628C31.5308 0.901964 32.3307 1.20192 32.9139 1.73516C33.5805 2.33506 33.9637 3.23491 33.9471 4.13476C33.9471 7.65084 33.9471 11.1669 33.9471 14.6997C33.9304 16.2827 32.5473 17.7158 30.9642 17.7492C27.6148 17.7658 24.2654 17.7492 20.9159 17.7492C21.3658 18.8656 21.8158 19.9655 22.2657 21.0819C20.266 19.9821 18.2997 18.849 16.2834 17.7658C11.8841 17.7325 7.46816 17.7658 3.05223 17.7492C1.46916 17.6992 0.0860622 16.2827 0.0693983 14.6997C0.0527344 11.2502 0.0693983 7.80082 0.0527344 4.36805C0.0527344 3.85147 0.102726 3.31823 0.319357 2.83498Z" fill="#945C87"></path> <path fill-rule="evenodd" clip-rule="evenodd" d="M13.7836 3.08482C14.2835 2.55157 15.25 2.71821 15.6333 3.33478C15.8332 3.65139 15.8499 4.08465 15.6833 4.41793C14.9834 5.8177 14.6834 7.36744 14.4168 8.88385C14.1002 10.8669 13.8336 12.8832 13.9336 14.8995C13.9669 15.4161 13.7169 16.0327 13.167 16.166C12.6504 16.2826 12.1672 15.9327 11.8339 15.5661C10.3342 13.9497 9.48429 11.8667 8.86773 9.7837C8.25117 11.0002 7.6346 12.2333 7.0347 13.4498C6.61811 14.283 6.16818 15.1328 5.50163 15.7994C5.21834 16.0827 4.73509 16.3326 4.36848 16.0493C3.81857 15.5661 3.68526 14.7995 3.45197 14.1496C2.56878 11.1002 2.06887 7.95068 1.55229 4.81787C1.43564 4.30129 1.65227 3.66806 2.16885 3.46809C2.58545 3.31812 3.13535 3.28479 3.4853 3.6014C3.73525 3.81803 3.80191 4.16797 3.8519 4.48459C4.21851 6.91752 4.6351 9.33378 5.235 11.7167C6.23484 9.81703 7.23467 7.91735 8.2345 6.001C8.38448 5.71771 8.56778 5.43443 8.8344 5.26779C9.20101 5.03449 9.73425 5.05116 10.0509 5.38444C10.3008 5.65106 10.4008 6.03433 10.4675 6.38427C10.7674 7.95068 11.1673 9.51708 11.7506 11.0002C12.0005 8.75054 12.3172 6.46759 13.1337 4.35127C13.317 3.90135 13.4836 3.45142 13.7836 3.08482ZM19.4326 4.30128C20.5158 4.16797 21.6823 4.53458 22.4155 5.35111C23.0154 6.03433 23.3486 6.91752 23.4653 7.8007C23.6486 9.31712 23.3653 10.9168 22.6321 12.2666C22.2155 13.0332 21.6823 13.783 20.9157 14.233C19.7992 14.9162 18.2995 14.8329 17.2163 14.1163C16.3498 13.5164 15.8666 12.5166 15.6666 11.5167C15.2667 9.23379 15.9499 6.70088 17.6663 5.11781C18.1662 4.66789 18.7827 4.3846 19.4326 4.30128ZM19.6493 6.63423C19.1327 6.80087 18.7994 7.28412 18.5161 7.71738C17.8162 8.85053 17.6163 10.3336 18.1828 11.5501C18.3328 11.8667 18.5661 12.2166 18.9494 12.2833C19.3493 12.3499 19.7159 12.1166 19.9992 11.8667C20.6324 11.3168 20.949 10.5002 21.1157 9.68372C21.2823 8.76721 21.199 7.75071 20.6658 6.95084C20.4491 6.65089 20.0159 6.51758 19.6493 6.63423ZM28.0812 4.30128C29.131 4.16797 30.2808 4.50125 31.014 5.28445C31.6806 6.001 32.0305 6.95084 32.1305 7.91735C32.2805 9.38377 32.0139 10.9168 31.314 12.2166C30.8974 12.9998 30.3475 13.7664 29.5476 14.233C28.4811 14.8829 27.048 14.8162 25.9815 14.183C25.265 13.7497 24.7817 13.0165 24.4985 12.2333C23.7486 9.85036 24.3818 7.05082 26.1149 5.25112C26.6814 4.75121 27.3646 4.3846 28.0812 4.30128ZM28.3145 6.63423C27.7479 6.8342 27.4146 7.3841 27.1147 7.86736C26.4815 8.98384 26.3148 10.4336 26.8981 11.6167C27.048 11.95 27.3313 12.2666 27.7146 12.2833C28.1312 12.3 28.4978 12.0333 28.7977 11.75C29.4476 11.1168 29.7309 10.217 29.8309 9.33378C29.9309 8.51725 29.7976 7.63406 29.3143 6.93418C29.1144 6.65089 28.6811 6.51758 28.3145 6.63423Z" fill="white"></path> </svg> 