<?xml version="1.0" encoding="UTF-8"?> <svg xmlns="http://www.w3.org/2000/svg" width="100" height="22" viewBox="0 0 100 22" fill="none"> <path fill-rule="evenodd" clip-rule="evenodd" d="M0.266622 2.83498C0.733211 1.71849 1.89968 0.918628 3.11615 0.918628C12.2979 0.918628 21.4797 0.918628 30.6782 0.918628C31.4781 0.901964 32.278 1.20192 32.8612 1.73516C33.5277 2.33506 33.911 3.23491 33.8943 4.13476C33.8943 7.65084 33.8943 11.1669 33.8943 14.6997C33.8777 16.2827 32.4946 17.7158 30.9115 17.7492C27.5621 17.7658 24.2126 17.7492 20.8632 17.7492C21.3131 18.8656 21.763 19.9655 22.213 21.0819C20.2133 19.9821 18.247 18.849 16.2306 17.7658C11.8314 17.7325 7.41543 17.7658 2.9995 17.7492C1.41643 17.6992 0.0333278 16.2827 0.016664 14.6997C6.33194e-08 11.2502 0.0166639 7.80082 0 4.36805C0 3.85147 0.0499917 3.31823 0.266622 2.83498Z" fill="#945C87"></path> <path fill-rule="evenodd" clip-rule="evenodd" d="M13.731 3.08482C14.2309 2.55157 15.1974 2.71821 15.5807 3.33478C15.7806 3.65139 15.7973 4.08465 15.6306 4.41793C14.9308 5.8177 14.6308 7.36744 14.3642 8.88385C14.0476 10.8669 13.781 12.8832 13.8809 14.8995C13.9143 15.4161 13.6643 16.0327 13.1144 16.166C12.5978 16.2826 12.1146 15.9327 11.7813 15.5661C10.2815 13.9497 9.43168 11.8667 8.81512 9.7837C8.19855 11.0002 7.58199 12.2333 6.98209 13.4498C6.56549 14.283 6.11557 15.1328 5.44901 15.7994C5.16573 16.0827 4.68248 16.3326 4.31587 16.0493C3.76596 15.5661 3.63265 14.7995 3.39936 14.1496C2.51617 11.1002 2.01625 7.95068 1.49967 4.81787C1.38303 4.30129 1.59966 3.66806 2.11624 3.46809C2.53283 3.31812 3.08274 3.28479 3.43268 3.6014C3.68264 3.81803 3.7493 4.16797 3.79929 4.48459C4.16589 6.91752 4.58249 9.33378 5.18239 11.7167C6.18223 9.81703 7.18206 7.91735 8.18189 6.001C8.33187 5.71771 8.51517 5.43443 8.78179 5.26779C9.1484 5.03449 9.68164 5.05116 9.99825 5.38444C10.2482 5.65106 10.3482 6.03433 10.4149 6.38427C10.7148 7.95068 11.1147 9.51708 11.698 11.0002C11.9479 8.75054 12.2645 6.46759 13.0811 4.35127C13.2644 3.90135 13.431 3.45142 13.731 3.08482ZM19.38 4.30128C20.4632 4.16797 21.6296 4.53458 22.3629 5.35111C22.9628 6.03433 23.296 6.91751 23.4127 7.8007C23.596 9.31711 23.3127 10.9168 22.5795 12.2666C22.1629 13.0332 21.6296 13.783 20.8631 14.233C19.7466 14.9162 18.2469 14.8329 17.1637 14.1163C16.2972 13.5164 15.814 12.5166 15.614 11.5167C15.2141 9.23379 15.8973 6.70088 17.6137 5.11781C18.1136 4.66789 18.7301 4.3846 19.38 4.30128ZM19.5967 6.63423C19.0801 6.80087 18.7468 7.28412 18.4635 7.71738C17.7636 8.85053 17.5637 10.3336 18.1302 11.5501C18.2802 11.8667 18.5135 12.2166 18.8968 12.2833C19.2967 12.3499 19.6633 12.1166 19.9466 11.8667C20.5798 11.3168 20.8964 10.5002 21.0631 9.68372C21.2297 8.7672 21.1464 7.75071 20.6132 6.95084C20.3965 6.65089 19.9633 6.51758 19.5967 6.63423ZM28.0286 4.30128C29.0784 4.16797 30.2282 4.50125 30.9614 5.28445C31.628 6.001 31.9779 6.95084 32.0779 7.91735C32.2279 9.38377 31.9613 10.9168 31.2614 12.2166C30.8448 12.9998 30.2949 13.7664 29.495 14.233C28.4285 14.8829 26.9954 14.8162 25.9289 14.183C25.2124 13.7497 24.7291 13.0165 24.4458 12.2333C23.696 9.85036 24.3292 7.05082 26.0622 5.25112C26.6288 4.75121 27.312 4.3846 28.0286 4.30128ZM28.2619 6.63423C27.6953 6.8342 27.362 7.3841 27.0621 7.86736C26.4288 8.98384 26.2622 10.4336 26.8454 11.6167C26.9954 11.95 27.2787 12.2666 27.662 12.2833C28.0786 12.2999 28.4452 12.0333 28.7451 11.75C29.395 11.1168 29.6783 10.217 29.7783 9.33378C29.8783 8.51725 29.745 7.63406 29.2617 6.93418C29.0617 6.65089 28.6285 6.51758 28.2619 6.63423Z" fill="white"></path> <path fill-rule="evenodd" clip-rule="evenodd" d="M39.5933 4.61785C40.5098 4.41789 41.4763 4.43455 42.3928 4.65118C42.3928 5.40106 42.3928 6.15093 42.3928 6.90081C41.643 6.71751 40.7931 6.55087 40.0766 6.90081C39.21 7.33407 38.7268 8.31724 38.7268 9.25041C38.6768 10.1836 38.9934 11.2334 39.8266 11.7667C40.5931 12.2666 41.5763 12.1666 42.4095 11.9333C42.4095 12.6832 42.4095 13.4331 42.4095 14.1829C41.293 14.4995 40.0766 14.4662 38.9934 14.0663C37.6936 13.583 36.6605 12.4499 36.2605 11.1168C35.9606 10.1003 35.9273 9.01712 36.1605 7.98396C36.5438 6.33424 37.9436 4.98446 39.5933 4.61785ZM46.3588 4.50121C47.492 4.36789 48.7251 4.5512 49.6416 5.26775C50.5248 5.95097 50.9581 7.06745 51.1247 8.13394C51.2747 9.31707 51.2414 10.5502 50.8748 11.6833C50.5581 12.6498 49.9083 13.5497 48.9751 13.9996C48.0252 14.4495 46.9088 14.4829 45.8923 14.2496C44.9591 14.033 44.1259 13.4164 43.6593 12.5665C43.0094 11.4334 42.8928 10.0836 42.9427 8.80049C42.9927 7.70068 43.276 6.55087 44.0092 5.70101C44.6091 5.01779 45.4757 4.60119 46.3588 4.50121ZM46.7088 6.65085C46.2255 6.7675 45.9422 7.25075 45.8256 7.70067C45.5923 8.60052 45.6256 9.5337 45.6923 10.4502C45.7589 10.9501 45.8089 11.4834 46.1589 11.8833C46.6255 12.4166 47.5753 12.3499 47.9919 11.8C48.2752 11.4501 48.3585 11.0001 48.4085 10.5669C48.5085 9.80033 48.5252 9.01712 48.4085 8.25058C48.3252 7.78399 48.1919 7.30074 47.8586 6.9508C47.5586 6.65085 47.1087 6.55087 46.7088 6.65085ZM91.1514 4.65118C92.1179 4.40123 93.1344 4.43455 94.1009 4.63452C94.1175 5.38439 94.1009 6.13427 94.1176 6.90081C93.3843 6.71751 92.5678 6.55087 91.8513 6.86748C91.0181 7.25075 90.5182 8.13393 90.4515 9.01712C90.3515 10.017 90.6181 11.1501 91.5013 11.7333C92.2679 12.2666 93.2677 12.1666 94.1176 11.9166C94.1009 12.6665 94.1342 13.4331 94.1009 14.1829C92.9177 14.4829 91.618 14.4496 90.5015 13.9663C89.2684 13.4331 88.3019 12.2999 87.9519 11.0001C87.6853 10.0003 87.652 8.9338 87.9019 7.9173C88.2685 6.3509 89.585 5.06778 91.1514 4.65118ZM52.6078 4.71784C53.6743 4.71784 54.7574 4.71784 55.8239 4.71784C56.2072 6.45088 56.5738 8.20059 56.9071 9.9503C57.207 8.18393 57.6236 6.45088 58.0402 4.71784C59.14 4.71784 60.2399 4.71784 61.3397 4.71784C61.7729 7.86731 62.1895 11.0168 62.6061 14.1496C61.7729 14.1496 60.9231 14.1496 60.0899 14.1496C59.8566 12 59.6566 9.83365 59.4067 7.68401C58.8901 9.83365 58.3568 12 57.8403 14.1496C57.2737 14.1496 56.6905 14.1496 56.1239 14.1496C55.574 12 55.0407 9.83365 54.4742 7.66734C54.2575 9.81699 54.0409 11.9833 53.8243 14.1496C53.0244 14.1496 52.2245 14.1496 51.408 14.1496C51.8079 11.0168 52.2079 7.86731 52.6078 4.71784ZM64.1392 4.71784C65.2057 4.71784 66.2889 4.71784 67.3553 4.71784C67.7386 6.45088 68.1052 8.20059 68.4385 9.9503C68.7551 8.20059 69.155 6.45088 69.5716 4.71784H72.8544C73.2877 7.86731 73.7043 11.0168 74.1209 14.1496C73.2877 14.1496 72.4378 14.1496 71.6046 14.1496C71.3713 12 71.1547 9.83365 70.9214 7.68401C70.4048 9.83365 69.8883 12 69.355 14.1496C68.7884 14.1496 68.2052 14.1496 67.6386 14.1496C67.0887 11.9833 66.5388 9.83365 65.9889 7.66734C65.7723 9.83365 65.5556 11.9833 65.339 14.1496C64.5391 14.1496 63.7393 14.1496 62.9228 14.1496C63.3393 11.0168 63.7393 7.86731 64.1392 4.71784ZM74.8541 4.75116C76.5705 4.71784 78.3035 4.75117 80.0199 4.7345C80.0199 5.40106 80.0199 6.06761 80.0199 6.75083C79.1534 6.76749 78.2869 6.75083 77.4203 6.75083C77.4203 7.33407 77.4203 7.90064 77.4203 8.48388C78.1702 8.48388 78.9201 8.48388 79.67 8.48388C79.67 9.13377 79.67 9.78366 79.67 10.4336C78.9201 10.4336 78.1702 10.4336 77.4203 10.4336C77.4203 11.0001 77.4203 11.5834 77.4203 12.1666C78.2869 12.1666 79.17 12.1666 80.0366 12.1666C80.0366 12.8332 80.0366 13.4997 80.0366 14.1829C78.3202 14.1829 76.5871 14.1829 74.8708 14.1829C74.8541 11.0335 74.8874 7.90064 74.8541 4.75116ZM80.7531 4.71784C81.8363 4.71784 82.9027 4.70118 83.9859 4.71784C85.0024 4.75117 86.0856 5.00113 86.8354 5.71767C87.5187 6.3509 87.7519 7.40072 87.4853 8.28391C87.2687 9.00046 86.7354 9.5837 86.0689 9.90031C86.7354 11.3167 87.4187 12.7332 88.1019 14.1496C87.202 14.1496 86.3022 14.1496 85.419 14.1496C84.7191 12.6998 84.0359 11.2501 83.3193 9.81699C83.3027 11.2667 83.3193 12.7165 83.3193 14.1496C82.4695 14.1496 81.6196 14.1496 80.7698 14.1496C80.7531 11.0168 80.7531 7.86731 80.7531 4.71784ZM83.3027 6.5342C83.3027 7.28408 83.3027 8.03395 83.3027 8.78383C83.7693 8.7505 84.2692 8.73384 84.6525 8.45055C85.1024 8.11727 85.0524 7.43405 84.7691 7.00079C84.4192 6.58419 83.8026 6.58419 83.3027 6.5342ZM94.8341 4.7345C96.5505 4.7345 98.2669 4.7345 99.9832 4.7345C99.9832 5.40106 99.9832 6.08428 99.9832 6.75083C99.1167 6.75083 98.2335 6.75083 97.367 6.75083C97.367 7.33407 97.367 7.90064 97.367 8.48388C98.1169 8.48388 98.8668 8.48388 99.6166 8.48388C99.6166 9.13377 99.6166 9.78366 99.6166 10.4336H97.367C97.367 11.0168 97.367 11.5834 97.367 12.1666C98.2502 12.1666 99.1167 12.1666 99.9999 12.1666C99.9999 12.8332 99.9999 13.4997 99.9999 14.1829C98.2835 14.1829 96.5505 14.1829 94.8341 14.1829C94.8174 11.0168 94.8341 7.86732 94.8341 4.7345Z" fill="black"></path> </svg> 